<mxfile host="Electron" modified="2023-04-27T14:12:44.243Z" agent="Mozilla/5.0 (Windows NT 10.0; Win64; x64) AppleWebKit/537.36 (KHTML, like Gecko) draw.io/21.1.2 Chrome/106.0.5249.199 Electron/21.4.3 Safari/537.36" etag="l--_GkPAz6ULd5V-nX4J" version="21.1.2" type="device">
  <diagram name="PÃ¡gina-1" id="UJ628VPbTN7eZQx_fbe-">
    <mxGraphModel dx="1036" dy="614" grid="1" gridSize="10" guides="1" tooltips="1" connect="1" arrows="1" fold="1" page="1" pageScale="1" pageWidth="827" pageHeight="1169" math="0" shadow="0">
      <root>
        <mxCell id="0" />
        <mxCell id="1" parent="0" />
        <mxCell id="f3744IkhgrVWTFDbGfGY-10" style="edgeStyle=orthogonalEdgeStyle;rounded=0;orthogonalLoop=1;jettySize=auto;html=1;endArrow=block;endFill=0;" edge="1" parent="1" source="f3744IkhgrVWTFDbGfGY-1">
          <mxGeometry relative="1" as="geometry">
            <mxPoint x="55" y="630" as="targetPoint" />
          </mxGeometry>
        </mxCell>
        <mxCell id="f3744IkhgrVWTFDbGfGY-26" style="edgeStyle=orthogonalEdgeStyle;rounded=0;orthogonalLoop=1;jettySize=auto;html=1;entryX=0;entryY=0.5;entryDx=0;entryDy=0;endArrow=none;endFill=0;" edge="1" parent="1" source="f3744IkhgrVWTFDbGfGY-1" target="f3744IkhgrVWTFDbGfGY-25">
          <mxGeometry relative="1" as="geometry" />
        </mxCell>
        <mxCell id="f3744IkhgrVWTFDbGfGY-1" value="Funcionario" style="shape=umlActor;verticalLabelPosition=bottom;verticalAlign=top;html=1;outlineConnect=0;" vertex="1" parent="1">
          <mxGeometry x="40" y="880" width="30" height="60" as="geometry" />
        </mxCell>
        <mxCell id="f3744IkhgrVWTFDbGfGY-9" style="edgeStyle=orthogonalEdgeStyle;rounded=0;orthogonalLoop=1;jettySize=auto;html=1;endArrow=block;endFill=0;" edge="1" parent="1" source="f3744IkhgrVWTFDbGfGY-2">
          <mxGeometry relative="1" as="geometry">
            <mxPoint x="55" y="230" as="targetPoint" />
          </mxGeometry>
        </mxCell>
        <mxCell id="f3744IkhgrVWTFDbGfGY-21" style="edgeStyle=orthogonalEdgeStyle;rounded=0;orthogonalLoop=1;jettySize=auto;html=1;entryX=0;entryY=0.5;entryDx=0;entryDy=0;endArrow=none;endFill=0;" edge="1" parent="1" source="f3744IkhgrVWTFDbGfGY-2" target="f3744IkhgrVWTFDbGfGY-20">
          <mxGeometry relative="1" as="geometry" />
        </mxCell>
        <mxCell id="f3744IkhgrVWTFDbGfGY-22" style="edgeStyle=orthogonalEdgeStyle;rounded=0;orthogonalLoop=1;jettySize=auto;html=1;entryX=0;entryY=0.5;entryDx=0;entryDy=0;endArrow=none;endFill=0;" edge="1" parent="1" source="f3744IkhgrVWTFDbGfGY-2" target="f3744IkhgrVWTFDbGfGY-19">
          <mxGeometry relative="1" as="geometry" />
        </mxCell>
        <mxCell id="f3744IkhgrVWTFDbGfGY-23" style="edgeStyle=orthogonalEdgeStyle;rounded=0;orthogonalLoop=1;jettySize=auto;html=1;entryX=0;entryY=0.5;entryDx=0;entryDy=0;endArrow=none;endFill=0;" edge="1" parent="1" source="f3744IkhgrVWTFDbGfGY-2" target="f3744IkhgrVWTFDbGfGY-18">
          <mxGeometry relative="1" as="geometry" />
        </mxCell>
        <mxCell id="f3744IkhgrVWTFDbGfGY-24" style="edgeStyle=orthogonalEdgeStyle;rounded=0;orthogonalLoop=1;jettySize=auto;html=1;entryX=0;entryY=0.5;entryDx=0;entryDy=0;endArrow=none;endFill=0;" edge="1" parent="1" source="f3744IkhgrVWTFDbGfGY-2" target="f3744IkhgrVWTFDbGfGY-17">
          <mxGeometry relative="1" as="geometry" />
        </mxCell>
        <mxCell id="f3744IkhgrVWTFDbGfGY-2" value="Registrador" style="shape=umlActor;verticalLabelPosition=bottom;verticalAlign=top;html=1;outlineConnect=0;" vertex="1" parent="1">
          <mxGeometry x="40" y="525" width="30" height="60" as="geometry" />
        </mxCell>
        <mxCell id="f3744IkhgrVWTFDbGfGY-14" style="edgeStyle=orthogonalEdgeStyle;rounded=0;orthogonalLoop=1;jettySize=auto;html=1;entryX=0;entryY=0.5;entryDx=0;entryDy=0;endArrow=none;endFill=0;" edge="1" parent="1" source="f3744IkhgrVWTFDbGfGY-3" target="f3744IkhgrVWTFDbGfGY-13">
          <mxGeometry relative="1" as="geometry" />
        </mxCell>
        <mxCell id="f3744IkhgrVWTFDbGfGY-15" style="edgeStyle=orthogonalEdgeStyle;rounded=0;orthogonalLoop=1;jettySize=auto;html=1;entryX=0;entryY=0.5;entryDx=0;entryDy=0;endArrow=none;endFill=0;" edge="1" parent="1" source="f3744IkhgrVWTFDbGfGY-3" target="f3744IkhgrVWTFDbGfGY-12">
          <mxGeometry relative="1" as="geometry" />
        </mxCell>
        <mxCell id="f3744IkhgrVWTFDbGfGY-16" style="edgeStyle=orthogonalEdgeStyle;rounded=0;orthogonalLoop=1;jettySize=auto;html=1;entryX=0;entryY=0.5;entryDx=0;entryDy=0;endArrow=none;endFill=0;" edge="1" parent="1" source="f3744IkhgrVWTFDbGfGY-3" target="f3744IkhgrVWTFDbGfGY-11">
          <mxGeometry relative="1" as="geometry" />
        </mxCell>
        <mxCell id="f3744IkhgrVWTFDbGfGY-3" value="Administrador" style="shape=umlActor;verticalLabelPosition=bottom;verticalAlign=top;html=1;outlineConnect=0;" vertex="1" parent="1">
          <mxGeometry x="40" y="130" width="30" height="60" as="geometry" />
        </mxCell>
        <mxCell id="f3744IkhgrVWTFDbGfGY-11" value="Suscribirse a avisos" style="ellipse;whiteSpace=wrap;html=1;" vertex="1" parent="1">
          <mxGeometry x="270" y="20" width="120" height="80" as="geometry" />
        </mxCell>
        <mxCell id="f3744IkhgrVWTFDbGfGY-12" value="Buscar normativas" style="ellipse;whiteSpace=wrap;html=1;" vertex="1" parent="1">
          <mxGeometry x="270" y="120" width="120" height="80" as="geometry" />
        </mxCell>
        <mxCell id="f3744IkhgrVWTFDbGfGY-13" value="Ver detalles de normativas" style="ellipse;whiteSpace=wrap;html=1;" vertex="1" parent="1">
          <mxGeometry x="270" y="220" width="120" height="80" as="geometry" />
        </mxCell>
        <mxCell id="f3744IkhgrVWTFDbGfGY-17" value="Acceder al sistema&amp;nbsp;" style="ellipse;whiteSpace=wrap;html=1;" vertex="1" parent="1">
          <mxGeometry x="280" y="350" width="120" height="80" as="geometry" />
        </mxCell>
        <mxCell id="f3744IkhgrVWTFDbGfGY-18" value="Registrar normativas" style="ellipse;whiteSpace=wrap;html=1;" vertex="1" parent="1">
          <mxGeometry x="280" y="460" width="120" height="80" as="geometry" />
        </mxCell>
        <mxCell id="f3744IkhgrVWTFDbGfGY-19" value="Borrar normativas&amp;nbsp;" style="ellipse;whiteSpace=wrap;html=1;" vertex="1" parent="1">
          <mxGeometry x="280" y="570" width="120" height="80" as="geometry" />
        </mxCell>
        <mxCell id="f3744IkhgrVWTFDbGfGY-20" value="Reemplazar normativas" style="ellipse;whiteSpace=wrap;html=1;" vertex="1" parent="1">
          <mxGeometry x="280" y="680" width="120" height="80" as="geometry" />
        </mxCell>
        <mxCell id="f3744IkhgrVWTFDbGfGY-25" value="Aprobar normativas" style="ellipse;whiteSpace=wrap;html=1;" vertex="1" parent="1">
          <mxGeometry x="280" y="870" width="120" height="80" as="geometry" />
        </mxCell>
      </root>
    </mxGraphModel>
  </diagram>
</mxfile>
